<svg id="Layer_1" data-name="Layer 1" xmlns="http://www.w3.org/2000/svg" xmlns:xlink="http://www.w3.org/1999/xlink" viewBox="0 0 47.33 44.08"><defs><style>.cls-1{fill:none;}.cls-2{clip-path:url(#clip-path);}.cls-3{fill:#30333c;}.cls-4{fill:#3677fd;}</style><clipPath id="clip-path" transform="translate(0 0)"><rect class="cls-1" width="47.33" height="44.08"/></clipPath></defs><title>camera</title><g class="cls-2"><path class="cls-3" d="M43.86,44.08H3.47C1.56,44.08,0,42.23,0,40V13.2c0-2.27,1.56-4.12,3.47-4.12H43.86c1.91,0,3.47,1.85,3.47,4.12V40c0,2.27-1.56,4.12-3.47,4.12m-40.39-33C2.67,11.08,2,12,2,13.2V40c0,1.15.67,2.12,1.47,2.12H43.86c.8,0,1.47-1,1.47-2.12V13.2c0-1.15-.67-2.12-1.47-2.12Z" transform="translate(0 0)"/><path class="cls-3" d="M31,11.08H16.37a1.64,1.64,0,0,1-1.53-1.75V1.75A1.64,1.64,0,0,1,16.37,0H31A1.64,1.64,0,0,1,32.5,1.75V9.33A1.64,1.64,0,0,1,31,11.08m-14.13-2H30.5V2H16.83Z" transform="translate(0 0)"/><path class="cls-3" d="M23.67,37.12h0a10.54,10.54,0,0,1,0-21.08h0a10.54,10.54,0,0,1,0,21.08m0-19.08a8.54,8.54,0,0,0,0,17.08h0A8.54,8.54,0,0,0,23.7,18Z" transform="translate(0 0)"/><path class="cls-3" d="M9.08,16.2a1.5,1.5,0,1,1-1.5-1.5,1.5,1.5,0,0,1,1.5,1.5" transform="translate(0 0)"/><line class="cls-4" x1="39.37" y1="7.52" x2="39.37" y2="10.08"/><path class="cls-3" d="M39.37,11.08a1,1,0,0,1-1-1V7.52a1,1,0,0,1,2,0v2.56a1,1,0,0,1-1,1" transform="translate(0 0)"/></g></svg>