<svg id="Layer_1" data-name="Layer 1" xmlns="http://www.w3.org/2000/svg" xmlns:xlink="http://www.w3.org/1999/xlink" viewBox="0 0 578.98 568.41"><defs><style>.cls-1{fill:none;}.cls-2{clip-path:url(#clip-path);}</style><clipPath id="clip-path" transform="translate(-4.89 -119.86)"><rect class="cls-1" x="5" y="119.86" width="578.84" height="569.03"/></clipPath></defs><title>cs</title><g class="cls-2"><path d="M248.91,432.51a29.73,29.73,0,1,1-29.73-29.73,29.73,29.73,0,0,1,29.73,29.73Zm120.67-29.73a29.73,29.73,0,1,0,29.73,29.73,29.73,29.73,0,0,0-29.73-29.73Zm214.3,13.16v56.5a51.36,51.36,0,0,1-51.36,51.36H495.25C458.32,626.34,364,688.27,294.38,688.27S130.45,626.34,93.52,523.8H56.25A51.36,51.36,0,0,1,4.89,472.44v-56.5a51.35,51.35,0,0,1,26.92-45.18c.54-80.21,23.92-142.86,69.58-186.16,45.3-43,110.23-64.74,193-64.74s147.68,21.78,193,64.74c45.67,43.31,69,106,69.58,186.16a51.35,51.35,0,0,1,26.92,45.18ZM475.17,432.7c0-13.22-.67-25.63-1.68-37.66-22.79-20.85-64.17-36.68-116.39-42.56a75.78,75.78,0,0,1,16.37,31.2c-32-25.2-94.78-19.2-142.27-75.59-2.72-3.15-5.08-6.16-7.11-8.91l-.07-.09h0c-8.45-11.42-11.33-18.22-11.49-10.7-1.4,64.81-47.34,115.34-98.35,122.48-.32,7.13-.59,14.32-.59,21.84a232.58,232.58,0,0,0,12.08,74.87c28.66,34.56,76,44.32,117.87,46.91,7.77-12.37,25.22-21,45.54-21,27.55,0,49.88,15.85,49.88,35.4s-22.33,35.41-49.88,35.41c-21.19,0-39.24-9.4-46.47-22.62-29.27-1.7-61.46-6.69-90.14-20.23,40.34,59.45,102.86,90.89,141.91,90.89,61.36,0,180.79-77.52,180.79-219.62ZM526,364.58c-3.27-140-83.16-213.91-231.65-213.91S66,224.61,62.74,364.58H82.5c7.22-47.18,22.5-86,45.68-115.81,37-47.54,92.87-71.64,166.21-71.64s129.26,24.1,166.21,71.64c23.18,29.83,38.45,68.63,45.68,115.81Zm0,0" transform="translate(-4.89 -119.86)"/></g></svg>