<svg id="Layer_1" data-name="Layer 1" xmlns="http://www.w3.org/2000/svg" xmlns:xlink="http://www.w3.org/1999/xlink" viewBox="0 0 57 47"><defs><style>.cls-1{fill:none;}.cls-2{clip-path:url(#clip-path);}.cls-3{fill:#30333c;}</style><clipPath id="clip-path" transform="translate(0 0)"><rect class="cls-1" width="57" height="47"/></clipPath></defs><title>desktop</title><g class="cls-2"><path class="cls-3" d="M53,38H4a4.22,4.22,0,0,1-4-4.4V4.4A4.22,4.22,0,0,1,4,0H53a4.22,4.22,0,0,1,4,4.4V33.6A4.22,4.22,0,0,1,53,38M4,2A2.23,2.23,0,0,0,2,4.4V33.6A2.23,2.23,0,0,0,4,36H53a2.23,2.23,0,0,0,2-2.4V4.4A2.23,2.23,0,0,0,53,2Z" transform="translate(0 0)"/><rect class="cls-3" x="27.5" y="37" width="2" height="8"/><rect class="cls-3" x="18" y="45" width="21" height="2"/><path class="cls-3" d="M53,38H4a4.22,4.22,0,0,1-4-4.4V28.08a1,1,0,0,1,1-1L56,27h0a1,1,0,0,1,1,1v5.6A4.22,4.22,0,0,1,53,38M2,29.08V33.6A2.23,2.23,0,0,0,4,36H53a2.23,2.23,0,0,0,2-2.4V29Z" transform="translate(0 0)"/><path class="cls-3" d="M30,32.5A1.5,1.5,0,1,1,28.5,31,1.5,1.5,0,0,1,30,32.5" transform="translate(0 0)"/><path class="cls-3" d="M53,38H4a4.22,4.22,0,0,1-4-4.4V4.4A4.22,4.22,0,0,1,4,0H53a4.22,4.22,0,0,1,4,4.4V33.6A4.22,4.22,0,0,1,53,38M4,2A2.23,2.23,0,0,0,2,4.4V33.6A2.23,2.23,0,0,0,4,36H53a2.23,2.23,0,0,0,2-2.4V4.4A2.23,2.23,0,0,0,53,2Z" transform="translate(0 0)"/><path class="cls-3" d="M53,38H4a4.22,4.22,0,0,1-4-4.4V4.4A4.22,4.22,0,0,1,4,0H53a4.22,4.22,0,0,1,4,4.4V33.6A4.22,4.22,0,0,1,53,38M4,2A2.23,2.23,0,0,0,2,4.4V33.6A2.23,2.23,0,0,0,4,36H53a2.23,2.23,0,0,0,2-2.4V4.4A2.23,2.23,0,0,0,53,2Z" transform="translate(0 0)"/></g></svg>