<svg id="Layer_1" data-name="Layer 1" xmlns="http://www.w3.org/2000/svg" xmlns:xlink="http://www.w3.org/1999/xlink" viewBox="0 0 35 59"><defs><style>.cls-1{fill:none;}.cls-2{clip-path:url(#clip-path);}.cls-3{fill:#30333c;}</style><clipPath id="clip-path" transform="translate(0 0)"><rect class="cls-1" width="35" height="59"/></clipPath></defs><title>device</title><g class="cls-2"><path class="cls-3" d="M31.17,59H3.83A3.84,3.84,0,0,1,0,55.17V3.83A3.84,3.84,0,0,1,3.83,0H31.17A3.84,3.84,0,0,1,35,3.83V55.17A3.84,3.84,0,0,1,31.17,59M3.83,2A1.84,1.84,0,0,0,2,3.83V55.17A1.84,1.84,0,0,0,3.83,57H31.17A1.84,1.84,0,0,0,33,55.17V3.83A1.84,1.84,0,0,0,31.17,2Z" transform="translate(0 0)"/><path class="cls-3" d="M34,13.08h0l-33,0a1,1,0,0,1-1-1V3.83A3.84,3.84,0,0,1,3.83,0H31.17A3.84,3.84,0,0,1,35,3.83v8.25a1,1,0,0,1-1,1m-32-2,31,0V3.83A1.84,1.84,0,0,0,31.17,2H3.83A1.84,1.84,0,0,0,2,3.83Z" transform="translate(0 0)"/><path class="cls-3" d="M34,13.08h0l-33,0a1,1,0,0,1-1-1V3.83A3.84,3.84,0,0,1,3.83,0H31.17A3.84,3.84,0,0,1,35,3.83v8.25a1,1,0,0,1-1,1m-32-2,31,0V3.83A1.84,1.84,0,0,0,31.17,2H3.83A1.84,1.84,0,0,0,2,3.83Z" transform="translate(0 0)"/><path class="cls-3" d="M31.17,59H3.83A3.84,3.84,0,0,1,0,55.17V46.94a1,1,0,0,1,1-1H34a1,1,0,0,1,1,1v8.24A3.84,3.84,0,0,1,31.17,59M2,47.94v7.23A1.84,1.84,0,0,0,3.83,57H31.17A1.84,1.84,0,0,0,33,55.17V47.92Z" transform="translate(0 0)"/><path class="cls-3" d="M19,52.5A1.5,1.5,0,1,1,17.5,51,1.5,1.5,0,0,1,19,52.5" transform="translate(0 0)"/><path class="cls-3" d="M25,7a1,1,0,0,1-1,1H11a1,1,0,0,1,0-2H24a1,1,0,0,1,1,1" transform="translate(0 0)"/></g></svg>