<svg id="Layer_1" data-name="Layer 1" xmlns="http://www.w3.org/2000/svg" xmlns:xlink="http://www.w3.org/1999/xlink" viewBox="0 0 54.46 55.63"><defs><style>.cls-1{fill:none;}.cls-2{clip-path:url(#clip-path);}.cls-3{fill:#30333c;}</style><clipPath id="clip-path" transform="translate(0 0)"><rect class="cls-1" width="54.46" height="55.63"/></clipPath></defs><title>dot-line</title><g class="cls-2"><path class="cls-3" d="M43.92,55.63h0a10.54,10.54,0,1,1,7.46-3.06,10.47,10.47,0,0,1-7.46,3.06m0-19.08A8.54,8.54,0,1,0,50,39.08a8.51,8.51,0,0,0-6.06-2.52" transform="translate(0 0)"/><path class="cls-3" d="M30.88,42.44a1,1,0,1,1-.5,1.94l-7.75-2a1,1,0,1,1,.5-1.94Z" transform="translate(0 0)"/><path class="cls-3" d="M36.49,21.08h0A10.54,10.54,0,1,1,43.92,18a10.47,10.47,0,0,1-7.46,3.06M36.49,2a8.54,8.54,0,0,0-6.06,14.56,8.48,8.48,0,0,0,6,2.52h0A8.54,8.54,0,0,0,42.55,4.52a8.48,8.48,0,0,0-6-2.52Z" transform="translate(0 0)"/><path class="cls-3" d="M10.54,46.85a10.54,10.54,0,1,1,7.48-18h0a10.54,10.54,0,0,1-7.48,18m0-19.07a8.54,8.54,0,1,0,6.06,2.52,8.52,8.52,0,0,0-6.06-2.52" transform="translate(0 0)"/><path class="cls-3" d="M25.13,20.48a1,1,0,1,1,1.39,1.44l-5.74,5.58a1,1,0,0,1-1.39-1.44Z" transform="translate(0 0)"/></g></svg>