<svg id="Layer_1" data-name="Layer 1" xmlns="http://www.w3.org/2000/svg" xmlns:xlink="http://www.w3.org/1999/xlink" viewBox="0 0 43.33 51"><defs><style>.cls-1{fill:none;}.cls-2{clip-path:url(#clip-path);}.cls-3{fill:#30333c;}</style><clipPath id="clip-path" transform="translate(0 0)"><rect class="cls-1" width="43.33" height="51"/></clipPath></defs><title>paper</title><g class="cls-2"><path class="cls-3" d="M42.33,44.67H30.59a1,1,0,1,1,0-2H41.33v-29L29.55,2H14V7.17a1,1,0,0,1-2,0V1a1,1,0,0,1,1-1H30a1,1,0,0,1,.7.29L43,12.57a1,1,0,0,1,.3.71V43.67a1,1,0,0,1-1,1" transform="translate(0 0)"/><path class="cls-3" d="M42.33,14.33H30a1,1,0,0,1-1-1V1A1,1,0,0,1,30.71.29L43,12.63a1,1,0,0,1-.71,1.71M31,12.33h8.92L31,3.42Z" transform="translate(0 0)"/><path class="cls-3" d="M30.33,51H1a1,1,0,0,1-1-1V7.33a1,1,0,0,1,1-1H18a1,1,0,0,1,.7.29L31,18.9a1,1,0,0,1,.3.71V50a1,1,0,0,1-1,1M2,49H29.33V20L17.55,8.33H2Z" transform="translate(0 0)"/><path class="cls-3" d="M30.33,20.67H18a1,1,0,0,1-1-1V7.33a1,1,0,0,1,1.71-.71L31,19a1,1,0,0,1-.71,1.71M19,18.67h8.92L19,9.75Z" transform="translate(0 0)"/></g></svg>