<svg id="Layer_1" data-name="Layer 1" xmlns="http://www.w3.org/2000/svg" xmlns:xlink="http://www.w3.org/1999/xlink" viewBox="0 0 47.23 52"><defs><style>.cls-1{fill:none;}.cls-2{clip-path:url(#clip-path);}.cls-3{fill:#30333c;}.cls-4{fill:#f9bf3b;}</style><clipPath id="clip-path" transform="translate(0 0)"><rect class="cls-1" width="47.23" height="52"/></clipPath></defs><title>star</title><g class="cls-2"><path class="cls-3" d="M28.25,35.46H28.2a1,1,0,0,1-.86-.6L22.79,24.22,11.46,21.94A1,1,0,0,1,11,20.2l8.71-7.6L18.38,1.11a1,1,0,0,1,1.51-1l9.92,5.93L40.32,1.27A1,1,0,0,1,41.72,2.4L39.14,13.67,47,22.18a1,1,0,0,1-.65,1.67l-11.51,1L29.12,35a1,1,0,0,1-.87.51M13.84,20.38l9.86,2a1,1,0,0,1,.72.59l4,9.25,4.94-8.76a1,1,0,0,1,.78-.5l10-.9-6.81-7.41a1,1,0,0,1-.24-.9l2.24-9.81L30.17,8.11a1,1,0,0,1-.93,0L20.6,2.9l1.15,10a1,1,0,0,1-.34.87Z" transform="translate(0 0)"/><line class="cls-4" x1="23.51" y1="23.35" x2="1" y2="51"/><path class="cls-3" d="M1,52a1,1,0,0,1-.77-1.63L22.73,22.72A1,1,0,1,1,24.28,24L1.78,51.63A1,1,0,0,1,1,52" transform="translate(0 0)"/></g></svg>